<?xml version="1.0" encoding="utf-8"?>
<!-- Generator: Adobe Illustrator 21.0.2, SVG Export Plug-In . SVG Version: 6.00 Build 0)  -->
<svg version="1.1" id="Layer_1" xmlns="http://www.w3.org/2000/svg" xmlns:xlink="http://www.w3.org/1999/xlink" x="0px" y="0px"
	 viewBox="0 0 500 500" style="enable-background:new 0 0 500 500;" xml:space="preserve">
<style type="text/css">
	.st0{fill:#FFFFFF;stroke:#999999;stroke-width:12;stroke-miterlimit:10;}
</style>
<g>
	<path class="st0" d="M213.4,158.2c2,4.7,3.5,9.3,5,14c4,12.1,10.5,22.4,21.1,29.9c8.1,5.5,16.5,7,25.8,2.8
		c12.1-5.7,19.6-15.3,25.3-26.9c3-6.2,3.8-13.1,7.1-19.3c2-3.8,3.3-8.8,1.8-13.1c-1.3-4-1.2-7.6-0.2-11.6c0.8-3.5,1-7,1-9.8
		c0.2-16.8-6.2-26.3-20.9-32.8c-6.3-2.8-13-4.7-19.6-6.5C242,80,223,89.5,215.4,106.3c-3.8,8.5-3,17.1-2.2,25.9
		c0.3,3.3,1.8,6.8,0,10C210.2,147.5,211.2,153,213.4,158.2z"/>
	<path class="st0" d="M171.8,244.5c-5.2,9.8-8,20.4-9.8,31.3c-2.2,12.5-4.5,25.1-4,37.9c0.2,3.3,1,6,4.5,7.3c3.5,1.3,7,3,10.6,4.2
		c26.3,8.6,53.4,13.3,85.8,13.3c25.6-0.5,55-5,83.3-16c8.5-3.3,9.1-4,8.6-13.1c-0.8-18.8-3.7-37.2-9.5-55.2
		c-3.5-11-9.6-19.1-20.9-22.9c-1.7-0.5-3.3-1.2-5-1.8c-9.8-4-20-7.1-28.6-13.3c-3.7-2.7-6.3-2-9.8,0.5c-12.1,8.6-25.8,11.6-38.7,3.5
		c-9.1-5.8-15.8-5.3-24.4,0.3c-9.3,6.2-20.8,8.3-30.9,13.3C178.1,236.3,174.3,239.6,171.8,244.5z"/>
</g>
<g>
	<path class="st0" d="M107.4,208.2c2,4.7,3.5,9.3,5,14c4,12.1,10.5,22.4,21.1,29.9c8.1,5.5,16.5,7,25.8,2.8
		c12.1-5.7,19.6-15.3,25.3-26.9c3-6.2,3.8-13.1,7.1-19.3c2-3.8,3.3-8.8,1.8-13.1c-1.3-4-1.2-7.6-0.2-11.6c0.8-3.5,1-7,1-9.8
		c0.2-16.8-6.2-26.3-20.9-32.8c-6.3-2.8-13-4.7-19.6-6.5c-17.8-4.8-36.7,4.7-44.4,21.4c-3.8,8.5-3,17.1-2.2,25.9
		c0.3,3.3,1.8,6.8,0,10C104.2,197.5,105.2,203,107.4,208.2z"/>
	<path class="st0" d="M65.8,294.5c-5.2,9.8-8,20.4-9.8,31.3c-2.2,12.5-4.5,25.1-4,37.9c0.2,3.3,1,6,4.5,7.3c3.5,1.3,7,3,10.6,4.2
		c26.3,8.6,53.4,13.3,85.8,13.3c25.6-0.5,55-5,83.3-16c8.5-3.3,9.1-4,8.6-13.1c-0.8-18.8-3.7-37.2-9.5-55.2
		c-3.5-11-9.6-19.1-20.9-22.9c-1.7-0.5-3.3-1.2-5-1.8c-9.8-4-20-7.1-28.6-13.3c-3.7-2.7-6.3-2-9.8,0.5c-12.1,8.6-25.8,11.6-38.7,3.5
		c-9.1-5.8-15.8-5.3-24.4,0.3c-9.3,6.2-20.8,8.3-30.9,13.3C72.1,286.3,68.3,289.6,65.8,294.5z"/>
</g>
<g>
	<path class="st0" d="M317.4,208.2c2,4.7,3.5,9.3,5,14c4,12.1,10.5,22.4,21.1,29.9c8.1,5.5,16.5,7,25.8,2.8
		c12.1-5.7,19.6-15.3,25.3-26.9c3-6.2,3.8-13.1,7.1-19.3c2-3.8,3.3-8.8,1.8-13.1c-1.3-4-1.2-7.6-0.2-11.6c0.8-3.5,1-7,1-9.8
		c0.2-16.8-6.2-26.3-20.9-32.8c-6.3-2.8-13-4.7-19.6-6.5c-17.8-4.8-36.7,4.7-44.4,21.4c-3.8,8.5-3,17.1-2.2,25.9
		c0.3,3.3,1.8,6.8,0,10C314.2,197.5,315.2,203,317.4,208.2z"/>
	<path class="st0" d="M275.8,294.5c-5.2,9.8-8,20.4-9.8,31.3c-2.2,12.5-4.5,25.1-4,37.9c0.2,3.3,1,6,4.5,7.3c3.5,1.3,7,3,10.6,4.2
		c26.3,8.6,53.4,13.3,85.8,13.3c25.6-0.5,55-5,83.3-16c8.5-3.3,9.1-4,8.6-13.1c-0.8-18.8-3.7-37.2-9.5-55.2
		c-3.5-11-9.6-19.1-20.9-22.9c-1.7-0.5-3.3-1.2-5-1.8c-9.8-4-20-7.1-28.6-13.3c-3.7-2.7-6.3-2-9.8,0.5c-12.1,8.6-25.8,11.6-38.7,3.5
		c-9.1-5.8-15.8-5.3-24.4,0.3c-9.3,6.2-20.8,8.3-30.9,13.3C282.1,286.3,278.3,289.6,275.8,294.5z"/>
</g>
</svg>
