<?xml version="1.0" encoding="utf-8"?>
<!-- Generator: Adobe Illustrator 21.0.2, SVG Export Plug-In . SVG Version: 6.00 Build 0)  -->
<svg version="1.1" id="Layer_1" xmlns="http://www.w3.org/2000/svg" xmlns:xlink="http://www.w3.org/1999/xlink" x="0px" y="0px"
	 viewBox="0 0 500 500" style="enable-background:new 0 0 500 500;" xml:space="preserve">
<style type="text/css">
	.st0{display:none;}
	.st1{font-family:'TYPOGRAPHPRO-SemiBold';}
	.st2{font-size:53.0529px;}
	.st3{fill:#999999;}
	.st4{fill:none;stroke:#999999;stroke-width:12;stroke-miterlimit:10;}
</style>
<text transform="matrix(1.0078 0 0 1 49.2269 292.9712)" class="st0 st1 st2">a</text>
<text transform="matrix(1.0078 0 0 1 49.4412 353.0885)" class="st0 st1 st2">b</text>
<text transform="matrix(1.0078 0 0 1 52.5955 410.2059)" class="st0 st1 st2">c</text>
<text transform="matrix(1.0078 0 0 1 49.4141 476.3232)" class="st0 st1 st2">d</text>
<circle class="st3" cx="116.6" cy="271.2" r="12.7"/>
<circle class="st3" cx="116.6" cy="316.7" r="12.7"/>
<circle class="st3" cx="116.6" cy="362.2" r="12.7"/>
<circle class="st3" cx="116.6" cy="406.2" r="12.7"/>
<path class="st3" d="M357.5,284.3H157.4c-7.1,0-12.9-5.8-12.9-12.9v0c0-7.1,5.8-12.9,12.9-12.9h200.1c7.1,0,12.9,5.8,12.9,12.9v0
	C370.4,278.5,364.6,284.3,357.5,284.3z"/>
<path class="st3" d="M389.8,238.8H116.1c-7.1,0-12.9-5.8-12.9-12.9v0c0-7.1,5.8-12.9,12.9-12.9h273.7c7.1,0,12.9,5.8,12.9,12.9v0
	C402.7,233,396.9,238.8,389.8,238.8z"/>
<path class="st3" d="M231.4,102.3H116.1c-7.1,0-12.9-5.8-12.9-12.9v0c0-7.1,5.8-12.9,12.9-12.9h115.3c7.1,0,12.9,5.8,12.9,12.9v0
	C244.3,96.4,238.5,102.3,231.4,102.3z"/>
<path class="st3" d="M231.4,140.2H116.1c-7.1,0-12.9-5.8-12.9-12.9v0c0-7.1,5.8-12.9,12.9-12.9h115.3c7.1,0,12.9,5.8,12.9,12.9v0
	C244.3,134.4,238.5,140.2,231.4,140.2z"/>
<path class="st3" d="M192.3,178.1h-76.2c-7.1,0-12.9-5.8-12.9-12.9v0c0-7.1,5.8-12.9,12.9-12.9h76.2c7.1,0,12.9,5.8,12.9,12.9v0
	C205.2,172.3,199.4,178.1,192.3,178.1z"/>
<path class="st3" d="M297.9,329.8H157.4c-7.1,0-12.9-5.8-12.9-12.9l0,0c0-7.1,5.8-12.9,12.9-12.9h140.5c7.1,0,12.9,5.8,12.9,12.9
	l0,0C310.8,324,305,329.8,297.9,329.8z"/>
<path class="st3" d="M315.9,375.3H157.4c-7.1,0-12.9-5.8-12.9-12.9v0c0-7.1,5.8-12.9,12.9-12.9h158.5c7.1,0,12.9,5.8,12.9,12.9v0
	C328.8,369.5,323,375.3,315.9,375.3z"/>
<path class="st3" d="M362.8,420.8H157.4c-7.1,0-12.9-5.8-12.9-12.9v0c0-7.1,5.8-12.9,12.9-12.9h205.3c7.1,0,12.9,5.8,12.9,12.9v0
	C375.7,415,369.8,420.8,362.8,420.8z"/>
<path class="st3" d="M375.5,178.1h-51.9c-14.3,0-26-11.7-26-26v-51.9c0-14.3,11.7-26,26-26h51.9c14.3,0,26,11.7,26,26v51.9
	C401.5,166.4,389.8,178.1,375.5,178.1z"/>
<path class="st4" d="M406.9,462H98.8c-14.3,0-26-11.7-26-26V61.7c0-14.3,11.7-26,26-26h308.1c14.3,0,26,11.7,26,26V436
	C432.9,450.3,421.2,462,406.9,462z"/>
</svg>
