<?xml version="1.0" encoding="utf-8"?>
<!-- Generator: Adobe Illustrator 21.0.2, SVG Export Plug-In . SVG Version: 6.00 Build 0)  -->
<svg version="1.1" id="Layer_1" xmlns="http://www.w3.org/2000/svg" xmlns:xlink="http://www.w3.org/1999/xlink" x="0px" y="0px"
	 viewBox="0 0 500 500" style="enable-background:new 0 0 500 500;" xml:space="preserve">
<style type="text/css">
	.st0{display:none;}
	.st1{display:inline;}
	.st2{fill:none;stroke:#999999;stroke-width:12;stroke-miterlimit:10;}
	.st3{fill:#999999;}
</style>
<g class="st0">
	<path class="st1" d="M225.3,130.3c1.2,2.8,2.1,5.6,3,8.4c2.4,7.3,6.3,13.5,12.7,18c4.9,3.3,9.9,4.2,15.5,1.7
		c7.3-3.4,11.8-9.2,15.2-16.2c1.8-3.7,2.3-7.9,4.3-11.6c1.2-2.3,2-5.3,1.1-7.9c-0.8-2.4-0.7-4.6-0.1-7c0.5-2.1,0.6-4.2,0.6-5.9
		c0.1-10.1-3.7-15.8-12.6-19.7c-3.8-1.7-7.8-2.8-11.8-3.9c-10.7-2.9-22.1,2.8-26.7,12.9c-2.3,5.1-1.8,10.3-1.3,15.6
		c0.2,2,1.1,4.1,0,6C223.4,123.9,224,127.2,225.3,130.3z"/>
	<path class="st1" d="M200.3,178c-3.1,5.9-4.8,12.3-5.9,18.8c-1.3,7.5-2.7,15.1-2.4,22.8c0.1,2,0.6,3.6,2.7,4.4
		c2.1,0.8,4.2,1.8,6.4,2.5c15.8,5.2,32.1,8,51.6,8c15.4-0.3,33.1-3,50.1-9.6c5.1-2,5.5-2.4,5.2-7.9c-0.5-11.3-2.2-22.4-5.7-33.2
		c-2.1-6.6-5.8-11.5-12.6-13.8c-1-0.3-2-0.7-3-1.1c-5.9-2.4-12-4.3-17.2-8c-2.2-1.6-3.8-1.2-5.9,0.3c-7.3,5.2-15.5,7-23.3,2.1
		c-5.5-3.5-9.5-3.2-14.7,0.2c-5.6,3.7-12.5,5-18.6,8C204.1,173.1,201.8,175.1,200.3,178z"/>
</g>
<path class="st2" d="M358.2,459.1H135.5c-15.1,0-27.4-12.3-27.4-27.4V62c0-15.1,12.3-27.4,27.4-27.4h222.7
	c15.1,0,27.4,12.3,27.4,27.4v369.7C385.6,446.7,373.2,459.1,358.2,459.1z"/>
<path class="st3" d="M276.6,298.1h-124c-6.3,0-11.5-5.2-11.5-11.5v-8.5c0-6.3,5.2-11.5,11.5-11.5h124c6.3,0,11.5,5.2,11.5,11.5v8.5
	C288.1,292.9,282.9,298.1,276.6,298.1z"/>
<path class="st3" d="M341.8,330.6H152.6c-6.3,0-11.5-5.2-11.5-11.5l0,0c0-6.3,5.2-11.5,11.5-11.5h189.2c6.3,0,11.5,5.2,11.5,11.5
	l0,0C353.3,325.4,348.1,330.6,341.8,330.6z"/>
<path class="st3" d="M248.3,61.6c-43.8,0-79.2,35.5-79.2,79.2c0,43.8,35.5,79.2,79.2,79.2c43.8,0,79.2-35.5,79.2-79.2
	C327.6,97.1,292.1,61.6,248.3,61.6z M230.4,105.2c-0.4-4.1-0.8-8.1,1-12c3.5-7.9,12.4-12.2,20.6-10c3.1,0.8,6.1,1.7,9.1,3
	c6.9,3,9.8,7.5,9.7,15.2c0,1.3-0.1,2.9-0.4,4.5c-0.4,1.8-0.5,3.5,0.1,5.4c0.7,2.1,0.1,4.4-0.9,6.1c-1.5,2.9-1.9,6.1-3.3,8.9
	c-2.6,5.4-6.1,9.9-11.7,12.5c-4.3,2-8.2,1.3-11.9-1.3c-5-3.4-8-8.2-9.8-13.9c-0.7-2.2-1.4-4.4-2.3-6.5c-1-2.4-1.5-4.9-0.1-7.5
	C231.3,108.4,230.6,106.8,230.4,105.2z M290.3,190.3c-13.1,5.1-26.8,7.2-38.7,7.4c-15,0-27.6-2.2-39.8-6.2c-1.7-0.5-3.3-1.3-4.9-1.9
	c-1.6-0.6-2-1.9-2.1-3.4c-0.2-6,0.8-11.8,1.8-17.6c0.9-5,2.2-9.9,4.6-14.5c1.2-2.3,3-3.8,5.2-4.9c4.7-2.3,10-3.3,14.4-6.2
	c4-2.6,7-2.9,11.3-0.2c6,3.8,12.3,2.3,17.9-1.7c1.6-1.1,2.8-1.4,4.5-0.2c4,2.9,8.7,4.3,13.3,6.2c0.8,0.3,1.5,0.6,2.3,0.8
	c5.2,1.7,8.1,5.5,9.7,10.6c2.7,8.3,4,16.9,4.4,25.6C294.5,188.5,294.2,188.8,290.3,190.3z"/>
<g>
	<path class="st3" d="M145.2,434.5L145.2,434.5c-1.5,0-2.7-1.2-2.7-2.7v-45.1c0-1.5,1.2-2.7,2.7-2.7l0,0c1.5,0,2.7,1.2,2.7,2.7v45.1
		C147.9,433.3,146.7,434.5,145.2,434.5z"/>
	<path class="st3" d="M153.6,434.5L153.6,434.5c-1.5,0-2.7-1.2-2.7-2.7v-45.1c0-1.5,1.2-2.7,2.7-2.7l0,0c1.5,0,2.7,1.2,2.7,2.7v45.1
		C156.3,433.3,155.1,434.5,153.6,434.5z"/>
	<path class="st3" d="M161.9,426.2L161.9,426.2c-1.5,0-2.7-1.2-2.7-2.7v-36.7c0-1.5,1.2-2.7,2.7-2.7l0,0c1.5,0,2.7,1.2,2.7,2.7v36.7
		C164.6,424.9,163.4,426.2,161.9,426.2z"/>
	<path class="st3" d="M170.3,426.2L170.3,426.2c-1.5,0-2.7-1.2-2.7-2.7v-36.7c0-1.5,1.2-2.7,2.7-2.7l0,0c1.5,0,2.7,1.2,2.7,2.7v36.7
		C173,424.9,171.7,426.2,170.3,426.2z"/>
	<path class="st3" d="M178.6,434.5L178.6,434.5c-1.5,0-2.7-1.2-2.7-2.7v-45.1c0-1.5,1.2-2.7,2.7-2.7l0,0c1.5,0,2.7,1.2,2.7,2.7v45.1
		C181.3,433.3,180.1,434.5,178.6,434.5z"/>
	<path class="st3" d="M186.9,434.5L186.9,434.5c-1.5,0-2.7-1.2-2.7-2.7v-45.1c0-1.5,1.2-2.7,2.7-2.7l0,0c1.5,0,2.7,1.2,2.7,2.7v45.1
		C189.7,433.3,188.4,434.5,186.9,434.5z"/>
	<path class="st3" d="M203.6,426.2L203.6,426.2c-1.5,0-2.7-1.2-2.7-2.7v-36.7c0-1.5,1.2-2.7,2.7-2.7l0,0c1.5,0,2.7,1.2,2.7,2.7v36.7
		C206.4,424.9,205.1,426.2,203.6,426.2z"/>
	<path class="st3" d="M212,426.2L212,426.2c-1.5,0-2.7-1.2-2.7-2.7v-36.7c0-1.5,1.2-2.7,2.7-2.7l0,0c1.5,0,2.7,1.2,2.7,2.7v36.7
		C214.7,424.9,213.5,426.2,212,426.2z"/>
	<path class="st3" d="M220.3,426.2L220.3,426.2c-1.5,0-2.7-1.2-2.7-2.7v-36.7c0-1.5,1.2-2.7,2.7-2.7l0,0c1.5,0,2.7,1.2,2.7,2.7v36.7
		C223,424.9,221.8,426.2,220.3,426.2z"/>
	<path class="st3" d="M228.7,434.5L228.7,434.5c-1.5,0-2.7-1.2-2.7-2.7v-45.1c0-1.5,1.2-2.7,2.7-2.7l0,0c1.5,0,2.7,1.2,2.7,2.7v45.1
		C231.4,433.3,230.2,434.5,228.7,434.5z"/>
	<path class="st3" d="M237,434.5L237,434.5c-1.5,0-2.7-1.2-2.7-2.7v-45.1c0-1.5,1.2-2.7,2.7-2.7l0,0c1.5,0,2.7,1.2,2.7,2.7v45.1
		C239.7,433.3,238.5,434.5,237,434.5z"/>
	<path class="st3" d="M245.4,434.5L245.4,434.5c-1.5,0-2.7-1.2-2.7-2.7v-45.1c0-1.5,1.2-2.7,2.7-2.7l0,0c1.5,0,2.7,1.2,2.7,2.7v45.1
		C248.1,433.3,246.9,434.5,245.4,434.5z"/>
	<path class="st3" d="M253.7,434.5L253.7,434.5c-1.5,0-2.7-1.2-2.7-2.7v-45.1c0-1.5,1.2-2.7,2.7-2.7l0,0c1.5,0,2.7,1.2,2.7,2.7v45.1
		C256.4,433.3,255.2,434.5,253.7,434.5z"/>
	<path class="st3" d="M262.1,434.5L262.1,434.5c-1.5,0-2.7-1.2-2.7-2.7v-45.1c0-1.5,1.2-2.7,2.7-2.7l0,0c1.5,0,2.7,1.2,2.7,2.7v45.1
		C264.8,433.3,263.6,434.5,262.1,434.5z"/>
	<path class="st3" d="M270.4,434.5L270.4,434.5c-1.5,0-2.7-1.2-2.7-2.7v-45.1c0-1.5,1.2-2.7,2.7-2.7l0,0c1.5,0,2.7,1.2,2.7,2.7v45.1
		C273.1,433.3,271.9,434.5,270.4,434.5z"/>
	<path class="st3" d="M287.1,426.2L287.1,426.2c-1.5,0-2.7-1.2-2.7-2.7v-36.7c0-1.5,1.2-2.7,2.7-2.7l0,0c1.5,0,2.7,1.2,2.7,2.7v36.7
		C289.8,424.9,288.6,426.2,287.1,426.2z"/>
	<path class="st3" d="M295.5,434.5L295.5,434.5c-1.5,0-2.7-1.2-2.7-2.7v-45.1c0-1.5,1.2-2.7,2.7-2.7l0,0c1.5,0,2.7,1.2,2.7,2.7v45.1
		C298.2,433.3,297,434.5,295.5,434.5z"/>
</g>
</svg>
