<?xml version="1.0" encoding="utf-8"?>
<!-- Generator: Adobe Illustrator 21.0.2, SVG Export Plug-In . SVG Version: 6.00 Build 0)  -->
<svg version="1.1" id="Layer_1" xmlns="http://www.w3.org/2000/svg" xmlns:xlink="http://www.w3.org/1999/xlink" x="0px" y="0px"
	 viewBox="0 0 500 500" style="enable-background:new 0 0 500 500;" xml:space="preserve">
<style type="text/css">
	.st0{fill:#FFFFFF;stroke:#000000;stroke-width:21;stroke-miterlimit:10;}
	.st1{display:none;fill:#FFFFFF;stroke:#000000;stroke-width:16;stroke-miterlimit:10;}
	.st2{fill:#FFFFFF;}
	.st3{fill:#232323;stroke:#000000;stroke-width:3;stroke-miterlimit:10;}
	.st4{fill:none;stroke:#000000;stroke-width:5;stroke-miterlimit:10;}
</style>
<g>
	<path class="st0" d="M445.5,471h-391c-14.3,0-26-11.7-26-26V54c0-14.3,11.7-26,26-26h391c14.3,0,26,11.7,26,26v391
		C471.5,459.3,459.8,471,445.5,471z"/>
	<g>
		<path class="st1" d="M300.4,136.7c-17.6-1.8-34.6,0.5-50,6.3c-10.8,4.1-22.6,4.1-33.4,0c-15.4-5.9-32.4-8.1-50-6.3
			c-60.2,6.1-105,49.8-97,129.9c6.1,60.2,65.8,163.7,125.9,157.7c6.2-0.6,12.2-2.4,17.9-5.1c12.5-6,27.1-6,39.6,0
			c5.7,2.7,11.7,4.5,17.9,5.1c60.2,6.1,119.9-97.5,125.9-157.7C405.4,186.5,360.6,142.8,300.4,136.7z"/>
		<g>
			<path class="st2" d="M397.4,266.6c8.1-80.1-36.8-123.8-97-129.9c-17.6-1.8-34.6,0.5-50,6.3c-10.8,4.1-22.6,4.1-33.4,0
				c-15.4-5.9-32.4-8.1-50-6.3c-60.2,6.1-105,49.8-97,129.9c6.1,60.2,65.8,163.7,125.9,157.7c6.2-0.6,12.2-2.4,17.9-5.1
				c12.5-6,27.1-6,39.6,0c5.7,2.7,11.7,4.5,17.9,5.1c35.9,3.6,71.6-31.8,95.9-73.7"/>
			<g>
				<path d="M407.1,266.6c3-30.8-1.2-63.6-18.6-89.9c-15.1-22.8-38.4-38.5-64.8-45.6c-17.4-4.7-35.7-5.9-53.6-3.2
					c-4.7,0.7-9.4,1.7-14,3c-5.2,1.5-10.1,3.7-15.3,4.8c-10.4,2.2-19.1-1.7-28.8-4.6c-31.4-9.3-67.7-4.8-96.3,11.2
					c-54,30.2-65.6,97.9-49.8,153.4c8.4,29.5,22.5,58,40.7,82.6c16.6,22.5,38.1,45,65.8,53.1c15,4.4,30.5,3.1,44.8-3.3
					c8.5-3.8,17.4-5.1,26.4-2.5c4.7,1.3,9,3.8,13.6,5.3c5,1.7,10.2,2.6,15.5,3c36.3,2.8,66.7-27.4,86.8-54
					c5.9-7.9,11.3-16.2,16.3-24.7c6.3-10.9-10.5-20.7-16.8-9.8c-9.2,15.7-19.8,30.6-32.7,43.5c-10.7,10.6-23.3,20.2-38,24.1
					c-6.2,1.7-12.8,2.2-19.2,0.9c-9-1.8-16.8-6.9-25.9-8.4c-9.9-1.6-20-0.8-29.4,3c-7.5,3-14.4,6.1-22.7,6.1
					c-9.8,0-19.4-3.4-28.6-8.9c-10.8-6.5-20-15-28.5-24.6c-18.4-20.6-32.7-45.6-42.6-71.3c-10.2-26.5-15.1-52-11.3-80.3
					c3.3-24.8,14.2-47,33.5-62.6c19-15.4,46.1-22.5,71.2-21.2c9.6,0.5,19,2.6,28.1,5.8c9.7,3.4,19.5,4.8,29.8,3.3
					c9.4-1.4,18.2-5.7,27.5-7.5c9.6-1.9,19.6-2.1,29.4-1.2c22.7,2.1,45.6,11.2,61.8,27.4c17.8,17.8,26.2,42.9,27.2,68.5
					c0.3,8.1,0,16.2-0.8,24.2c-0.5,5.2,4.8,9.8,9.8,9.8C403.1,276.4,406.6,271.9,407.1,266.6L407.1,266.6z"/>
			</g>
		</g>
		<path class="st3" d="M232.3,127.4c-0.2,1.5-2.4,1.4-2.5-0.1c-0.9-14.1-4.9-36.6-21.2-41.9c-0.2,0-0.3-0.1-0.5-0.1
			c-4.7-1.4-6.9-7-4.2-11c2.1-3.1,5.8-3,9-2.1c4,1.2,7.3,3.7,9.9,7C228.1,85.9,236.2,101.1,232.3,127.4z"/>
	</g>
	<g>
		<g>
			<g>
				<path d="M406.9,301c-9.5,8.1-19,16.2-28.4,24.4c-4.8,4.1-9.6,8.1-14.3,12.3c-6.1,5.4-4.8,14.9,4.2,16c12.5,1.5,25.2,2,37.8,3.1
					c6.2,0.5,12.4,1.2,18.5,1.5c3.2,0.2,5.7-0.9,8.7-1.9c13.9-4.6,27.7-9.2,41.6-13.8c2.4-0.8,4.1-2.9,4.1-5.4
					c0-17.6-0.1-35.3-0.1-52.9c0-3.5-3.6-6.6-7.1-5.4c-20.8,6.9-41.7,13.8-62.5,20.7c-6.8,2.3-3.9,13.1,3,10.8
					c20.8-6.9,41.7-13.8,62.5-20.7c-2.4-1.8-4.7-3.6-7.1-5.4c0,17.6,0.1,35.3,0.1,52.9c1.4-1.8,2.8-3.6,4.1-5.4
					c-11.4,3.8-22.7,7.5-34.1,11.3c-4.3,1.4-8.8,2.6-13,4.3c2-0.8,0.7-0.2-1.1-0.4c-2.7-0.2-5.4-0.4-8.1-0.7
					c-14.1-1.1-28.3-2.3-42.4-3.4c-1.2-0.1-3.5-0.8-4.7-0.4c-1.7,0.5,0.4,4.7,2,4.3c0.4-0.1,0.9-0.8,1.2-1.1
					c4.5-3,8.6-7.4,12.7-10.9c10.1-8.6,20.2-17.3,30.2-25.9C420.4,304.2,412.4,296.3,406.9,301z"/>
			</g>
		</g>
		<path d="M382.9,340.7c-1.1-3.4-3.3-6-6.1-7.7l-9.7,8.4c-2.9,2.5-1.4,7.3,2.5,7.6l13.2,1.1C383.8,347.1,384,343.9,382.9,340.7z"/>
		<path class="st4" d="M431.1,351.3c-5.8-0.6-11.1-4.5-13-10.5c-1.4-4.2-0.8-8.6,1.2-12.2c-3.7-1.7-6.8-4.9-8.2-9.1
			c-1.9-5.9,0-12.2,4.4-16.1"/>
	</g>
	<g>
		<g>
			<path d="M428.8,327.2c14.4-4.4,28.8-8.8,43.2-13.2c2.3-0.7,1.3-4.3-1-3.6c-14.4,4.4-28.8,8.8-43.2,13.2
				C425.5,324.3,426.5,327.9,428.8,327.2L428.8,327.2z"/>
		</g>
	</g>
	<g>
		<g>
			<path d="M122.8,203c-21.1,24.1-18.8,59.6-1.8,85.1c3.4,5.1,9.9,7.2,15.4,4c5-2.9,7.4-10.3,4-15.4c-5-7.6-9-15.7-10.4-24.8
				c-0.9-6.4-0.3-12.1,1.3-17.9c0.4-1.3,0.8-2.6,1.2-3.9c0.2-0.6,0.5-1.2,0.7-1.8c0.5-1.3-0.8,1.6,0.1-0.3c1-2,2-4,3.1-5.9
				c0.8-1.3,1.8-2.5,2.6-3.9c0.4-0.7-2,2.4-0.5,0.6c4-4.6,4.5-11.4,0-15.9C134.7,199,126.8,198.4,122.8,203L122.8,203z"/>
		</g>
	</g>
</g>
</svg>
