<?xml version="1.0" encoding="utf-8"?>
<!-- Generator: Adobe Illustrator 21.0.2, SVG Export Plug-In . SVG Version: 6.00 Build 0)  -->
<svg version="1.1" id="Layer_1" xmlns="http://www.w3.org/2000/svg" xmlns:xlink="http://www.w3.org/1999/xlink" x="0px" y="0px"
	 viewBox="0 0 500 500" style="enable-background:new 0 0 500 500;" xml:space="preserve">
<style type="text/css">
	.st0{fill:none;stroke:#999999;stroke-width:12;stroke-miterlimit:10;}
	.st1{fill:#FFFFFF;stroke:#999999;stroke-width:12;stroke-miterlimit:10;}
	.st2{fill:#A9EBFF;}
	.st3{opacity:0.23;fill:#C4C4C4;}
</style>
<path class="st0" d="M359.8,459.1H135.1c-10.5,0-19.1-8.7-19.1-19.1V53.7c0-10.5,8.7-19.1,19.1-19.1h224.7
	c10.5,0,19.1,8.7,19.1,19.1v386.2C379,450.4,370.3,459.1,359.8,459.1z"/>
<path class="st1" d="M348.9,390.3H145.8c-5.7,0-10.4-4.7-10.4-10.4V70c0-5.7,4.7-10.4,10.4-10.4h203.3c5.7,0,10.4,4.7,10.4,10.4v310
	C359.3,385.6,354.7,390.3,348.9,390.3z"/>
<path class="st2" d="M348.5,309.7H217.2c-4.6,0-8.3-3.7-8.3-8.3v-11.1c0-4.6,3.7-8.3,8.3-8.3h123c4.6,0,8.3,3.7,8.3,8.3V309.7z"/>
<path class="st3" d="M159.7,375c-2.3,3.6-7.5,4.2-10.2,0.9c-1.4-1.7-2.3-3.9-2.3-6.2V83.9c0-7.2,5.9-13.1,13.1-13.1h171.6
	c6.4,0,10.4,7,7,12.5C306.4,136.5,180.3,342.4,159.7,375z"/>
<circle class="st1" cx="247.5" cy="423.3" r="15.8"/>
<path class="st2" d="M348.5,315.9H164.3c-4.9,0-8.9,4-8.9,8.9v42.8c0,4.9,4,8.9,8.9,8.9h175.3c4.9,0,8.9-4,8.9-8.9V315.9z"/>
</svg>
